# Blender 3.5.0
# www.blender.org
mtllib segment_test.mtl
o Cube
v 1.409473 2.601108 -3.900667
v 1.000000 -1.000000 -1.000000
v 1.000000 1.000000 1.000000
v 1.000000 -1.000000 1.000000
v -1.000000 1.000000 -1.000000
v -1.000000 -1.000000 -1.000000
v -1.000000 1.000000 1.000000
v -4.757280 2.301648 3.928774
vn -0.2774 0.9199 0.2774
vn 0.6082 0.6082 0.5100
vn -0.2928 0.6761 -0.6761
vn -0.3348 -0.8808 0.3348
vn 1.0000 -0.0000 -0.0000
vn -0.0000 -0.0000 -1.0000
vn -0.0000 1.0000 -0.0000
vn -0.0000 -0.0000 1.0000
vn -1.0000 -0.0000 -0.0000
vn -0.0000 -1.0000 -0.0000
vn 0.9961 -0.0627 0.0627
vn -0.5056 -0.5056 -0.6991
vt 0.625000 0.500000
vt 0.375000 0.500000
vt 0.625000 0.750000
vt 0.375000 0.750000
vt 0.875000 0.500000
vt 0.625000 0.250000
vt 0.375000 0.250000
vt 0.125000 0.500000
vt 0.875000 0.750000
vt 0.625000 1.000000
vt 0.625000 0.000000
vt 0.375000 1.000000
vt 0.375000 0.000000
vt 0.125000 0.750000
s 0
usemtl Material
f 5/5/1 3/3/1 1/1/1
f 4/4/2 7/10/2 8/12/2
f 7/11/3 6/7/3 8/13/3
f 6/8/4 4/4/4 8/14/4
f 2/2/5 3/3/5 4/4/5
f 5/6/6 2/2/6 6/7/6
f 5/5/7 7/9/7 3/3/7
f 4/4/8 3/3/8 7/10/8
f 7/11/9 5/6/9 6/7/9
f 6/8/10 2/2/10 4/4/10
f 2/2/11 1/1/11 3/3/11
f 5/6/12 1/1/12 2/2/12
